# xmcd CD database file
#
# Track frame offsets:
#	150
#	10871
#	31844
#	42945
#	56682
#	69461
#	80532
#	95271
#	115645
#	128363
#	137852
#	157538
#	167801
#	183189
#	197968
#	210302
#	223577
#	234075
#	253011
#	265013
#	281887
#	293753
#	309509
#	323262
#
# Disc length: 4470 seconds
#
# Revision: 1
# Processed by: cddbd v1.5.2PL0 Copyright (c) Steve Scherf et al.
# Submitted via: CDex 1.51
#
DISCID=3b117418
DTITLE=Thielemans, Toots - The Sound and Time Out For Toots
DYEAR=2008
DGENRE=Jazz
TTITLE0=On The Alamo - The Sound
TTITLE1=Don't Be That Way - The Sound
TTITLE2=I Put All The Eggs In One Basket - The Sound
TTITLE3=Sophisticated Lady - The Sound
TTITLE4=Scotch On The Rocks - The Sound
TTITLE5=I Let A Song Go Out Of My Heart - The Sound
TTITLE6=Stars Fell Of Alabama - The Sound
TTITLE7=Diga Diga Doo - The Sound
TTITLE8=So Rare - The Sound
TTITLE9=Skylark - The Sound
TTITLE10=Sonny Boy - The Sound
TTITLE11=Cocktails For Two - The Sound
TTITLE12=The Nearness Of You - Time Out For Toots
TTITLE13=In A Sentimental Mood - Time Out For Toots
TTITLE14=You Took Advantage Of Me - Time Out For Toots
TTITLE15=Cool And Easy - Time Out For Toots
TTITLE16=Body And Soul - Time Out For Toots
TTITLE17=The Cuckoo In The Clock - Time Out For Toots
TTITLE18=Tangerine - Time Out For Toots
TTITLE19=Early Autumn - Time Out For Toots
TTITLE20=Them There Eyes - Time Out For Toots
TTITLE21=A Handful Of Stars - Time Out For Toots
TTITLE22=Can't Lovin' Dat Man - Time Out For Toots
TTITLE23=Clap Yo' Hands - Time Out For Toots
EXTD=
EXTT0=
EXTT1=
EXTT2=
EXTT3=
EXTT4=
EXTT5=
EXTT6=
EXTT7=
EXTT8=
EXTT9=
EXTT10=
EXTT11=
EXTT12=
EXTT13=
EXTT14=
EXTT15=
EXTT16=
EXTT17=
EXTT18=
EXTT19=
EXTT20=
EXTT21=
EXTT22=
EXTT23=
PLAYORDER=
